<svg xmlns="http://www.w3.org/2000/svg" width="50" height="50" viewBox="0 0 50 50">
  <path id="americanexpress" d="M33.364,29.954a1.371,1.371,0,0,0-.717-1.3,3.347,3.347,0,0,0-1.687-.282H27.746v5.875h1.407V32.112h1.5c.5,0,.812.05,1,.261a1.784,1.784,0,0,1,.217,1.146v.729h1.375V33.092a1.781,1.781,0,0,0-.225-1.075,1.562,1.562,0,0,0-.687-.487l.042-.017a1.633,1.633,0,0,0,1-1.557Zm-1.812.847-.058,0a1.307,1.307,0,0,1-.687.121H29.119V29.606h1.717a1.452,1.452,0,0,1,.687.1.554.554,0,0,1,.312.532.623.623,0,0,1-.279.563Zm10.733,2.192h-2.7v1.25H42.3c1.408,0,2.187-.579,2.187-1.842a1.665,1.665,0,0,0-.389-1.212,2.435,2.435,0,0,0-1.521-.431l-.783-.031a1.391,1.391,0,0,1-.532-.062.442.442,0,0,1-.312-.438.459.459,0,0,1,.188-.437,1.031,1.031,0,0,1,.567-.125h2.562V28.411H41.453a1.746,1.746,0,0,0-2,1.75c0,1.875,1.617,1.781,2.932,1.813a.652.652,0,0,1,.469.125.5.5,0,0,1,0,.75.845.845,0,0,1-.578.146ZM0,0V21.033l1.687-3.908H5.333l.469.967v-.967h4.257L11,19.25l.91-2.11H25.452a2.251,2.251,0,0,1,1.575.492v-.479h3.722v.479a4.787,4.787,0,0,1,2.333-.479h5.429l.5.971v-.971h4l.529.969v-.971h3.871v8.225H43.478l-.75-1.25v1.218h-4.9l-.533-1.312H36.078l-.562,1.279H32.988a4.585,4.585,0,0,1-2.25-.5v.5H24.717V23.469c0-.25-.062-.25-.219-.282h-.219v2.158H12.64v-1l-.437,1H9.771l-.421-1v.969H4.657l-.533-1.3H2.917l-.533,1.3H0V50H49.553V35.192a4.6,4.6,0,0,1-2.028.375H43.936v-.532a3.275,3.275,0,0,1-1.9.532H30.645V33.692c0-.25-.037-.25-.25-.25h-.156v2.129H26.49V33.35a4.224,4.224,0,0,1-1.933.283H24.11V35.54H19.569l-1.125-1.285-1.187,1.25H9.879V27.318H17.4l1.079,1.254,1.154-1.25h5.025a3.21,3.21,0,0,1,1.962.469v-.5h4.536a3.784,3.784,0,0,1,1.882.469v-.5h6.8v.5a2.566,2.566,0,0,1,1.674-.5H45.45v.5a2.77,2.77,0,0,1,1.75-.5h2.45V0ZM44.074,31.157c.008.01.012.025.021.033s.05.021.067.042l-.087-.074Zm5.567-3.9h.136v1.157H49.64Zm.076,4.058V31.3c-.062-.053-.1-.1-.156-.146a2.224,2.224,0,0,0-1.592-.469l-.75-.025a1.835,1.835,0,0,1-.562-.062.442.442,0,0,1-.312-.438.5.5,0,0,1,.187-.425,1.007,1.007,0,0,1,.562-.1h2.549V28.41H46.971a1.765,1.765,0,0,0-2,1.75c0,1.875,1.625,1.781,2.937,1.813a.64.64,0,0,1,.467.125.466.466,0,0,1,.158.375.474.474,0,0,1-.187.375c-.094.117-.283.146-.562.146H45.1v1.26h2.68a2.147,2.147,0,0,0,1.875-.75h.062A1.88,1.88,0,0,0,50,32.414a1.836,1.836,0,0,0-.282-1.1ZM38.742,29.6V28.388H34.085v5.9h4.657V33.072H35.471V31.885h3.194V30.668H35.474V29.606m-7.329-11.3h1.428v5.86H28.148Zm-.8,1.575-.015.012a1.376,1.376,0,0,0-.708-1.3,3.286,3.286,0,0,0-1.687-.282H21.729v5.875h1.4V22.033h1.5a1.44,1.44,0,0,1,1.014.25,1.764,1.764,0,0,1,.224,1.142v.737h1.411V23.01a1.705,1.705,0,0,0-.229-1.075,1.646,1.646,0,0,0-.687-.493,1.654,1.654,0,0,0,.983-1.562Zm-1.781.825h-.031a1.3,1.3,0,0,1-.687.117H23.124v-1.3h1.718a1.563,1.563,0,0,1,.687.1.54.54,0,0,1,.312.521.593.593,0,0,1-.279.554Zm7.6-1.179h1.317v-1.25H33.141a2.83,2.83,0,0,0-2.125.688,3.182,3.182,0,0,0-.754,2.312,2.948,2.948,0,0,0,.75,2.238,2.924,2.924,0,0,0,2.021.646h1.625l.532-1.307h2.9l.546,1.307h2.833v-4.4l2.65,4.4h1.979l0,0V18.3H44.672v4.09l-2.458-4.083H40.089V23.75l-2.361-5.533H35.637l-1.964,4.625h-.625a1.42,1.42,0,0,1-.975-.279,2.064,2.064,0,0,1-.387-1.379,1.943,1.943,0,0,1,.4-1.312,1.308,1.308,0,0,1,1.075-.343Zm3.475-.225.967,2.329v0H35.67l.971-2.333ZM4.958,22.854l.529,1.308H8.333V19.569l2.025,4.594h1.217L13.6,19.576l.031,4.587H15.07V18.31H12.745l-1.682,3.967L9.239,18.308H6.964v5.547L4.594,18.307H2.517L.021,24.16h1.5l.542-1.3h2.9ZM3.525,19.3l.958,2.329-.007,0H2.569L3.521,19.3ZM24.7,28.375H20.237L18.466,30.3l-1.718-1.921H11.137v5.875h5.529l1.781-1.942,1.717,1.938h2.712V32.29h1.746c1.25,0,2.437-.342,2.437-1.968l-.012-.007c0-1.625-1.246-1.937-2.35-1.937Zm-8.721,4.651-.029,0H12.541V31.861H15.6v-1.2H12.541V29.6h3.5l1.526,1.708-1.592,1.717Zm5.5.688-2.146-2.389,2.146-2.308v4.694Zm3.235-2.621H22.873V29.6h1.844c.5,0,.875.2.875.717s-.312.775-.875.775ZM20.765,19.526V18.306H16.1v5.861h4.661V22.958H17.5V21.783h3.18v-1.2H17.5V19.528" fill="#225794"/>
</svg>
