<svg id="eye" xmlns="http://www.w3.org/2000/svg" width="18.001" height="12" viewBox="0 0 18.001 12">
  <path id="Path_15" data-name="Path 15" d="M18.825,16.247A2.664,2.664,0,1,1,16.163,13.5,2.706,2.706,0,0,1,18.825,16.247Z" transform="translate(-7.162 -10.247)" fill="#7b7b7b"/>
  <path id="Path_16" data-name="Path 16" d="M18.93,12.1a12.711,12.711,0,0,0-3.723-3.77,9.42,9.42,0,0,0-5.1-1.578A8.984,8.984,0,0,0,5.451,8.1a13.663,13.663,0,0,0-4.113,3.978,1.2,1.2,0,0,0-.024,1.333A12.53,12.53,0,0,0,5,17.189a9.291,9.291,0,0,0,5.112,1.561,9.465,9.465,0,0,0,5.108-1.564A12.532,12.532,0,0,0,18.935,13.4a1.207,1.207,0,0,0,0-1.3ZM10.124,16.35a3.6,3.6,0,1,1,3.6-3.6A3.6,3.6,0,0,1,10.124,16.35Z" transform="translate(-1.123 -6.75)" fill="#7b7b7b"/>
</svg>
