<svg xmlns="http://www.w3.org/2000/svg" width="66.667" height="50" viewBox="0 0 66.667 50">
  <g id="Group_107" data-name="Group 107" transform="translate(-784.031 -697)">
    <path id="visa" d="M62.511,50H4.178a4.055,4.055,0,0,1-2.929-1.2A3.981,3.981,0,0,1,.011,45.834V37.5H66.678v8.334A4.115,4.115,0,0,1,62.511,50ZM.011,4.166a4.055,4.055,0,0,1,1.2-2.929A3.974,3.974,0,0,1,4.178,0H62.511a3.974,3.974,0,0,1,2.962,1.236,4.055,4.055,0,0,1,1.2,2.929V8.333H.011ZM21.43,33.334,24.815,12.5h5.4L26.833,33.334h-5.4ZM55.871,12.5h4.362l4.362,20.834H59.582l-1.236-2.084H52.095l-1.172,2.084H45.259l8.073-19.271L53.4,13.9l.26-.391.456-.456.716-.391,1.042-.163Zm2.475,14.583-1.889-8.92-2.278,8.92Zm-22,6.251a17.279,17.279,0,0,1-3.19-.293,13.133,13.133,0,0,1-2.213-.554l-.716-.26L31,27.669a6.852,6.852,0,0,0,3.255,1.27,9.95,9.95,0,0,0,3.939-.065q1.791-.423,1.791-1.726,0-.847-1.172-1.661a13.5,13.5,0,0,0-2.6-1.4,7.134,7.134,0,0,1-2.6-1.889,4.431,4.431,0,0,1-1.172-3.06,5.618,5.618,0,0,1,1.008-3.32,5.86,5.86,0,0,1,2.571-2.084,16.677,16.677,0,0,1,2.929-.944,12.6,12.6,0,0,1,2.6-.293,12.939,12.939,0,0,1,2.343.228,19.306,19.306,0,0,1,1.889.423l.651.195-.78,4.362A8.315,8.315,0,0,0,41,16.762q-2.962.1-2.962,1.661,0,.78,1.2,1.529a20.12,20.12,0,0,0,2.636,1.368,7.23,7.23,0,0,1,2.6,1.985,4.653,4.653,0,0,1,1.172,3.125,5.574,5.574,0,0,1-1.594,4,8.358,8.358,0,0,1-3.613,2.278,14,14,0,0,1-4.1.619ZM6.653,12.5a2.612,2.612,0,0,1,1.661.488,2,2,0,0,1,.749.944l.13.456,1.822,9.376.651,3.06L16.809,12.5h5.859L14.01,33.334H8.345l-4.688-18.1A18.292,18.292,0,0,0,.011,13.672V12.5h6.64Z" transform="translate(784.02 696.999)" fill="#002b7c"/>
    <path id="visa-2" data-name="visa" d="M62.511,60.7H4.178A3.728,3.728,0,0,1,1.249,59.24a5.389,5.389,0,0,1-1.238-3.6V45.526H66.678V55.644a5.47,5.47,0,0,1-1.2,3.6A3.7,3.7,0,0,1,62.511,60.7Z" transform="translate(784.02 686.297)" fill="#f8b802"/>
  </g>
</svg>
