<svg xmlns="http://www.w3.org/2000/svg" width="75.833" height="50" viewBox="0 0 75.833 50">
  <g id="Group_106" data-name="Group 106" transform="translate(-899.086 -697)">
    <path id="cc-mastercard" d="M63.391,30.438h.23v-.1h-.56v.1h.23v.554h.1v-.554Zm.954.554h.133V30.34h-.164l-.2.423-.2-.423h-.164v.652h.1V30.5l.2.423h.133l.164-.423v.488Zm-.263,14.324v.065h-.164v-.1h.164Zm0,.294h.1l-.133-.163h.065l.034-.033a.159.159,0,0,0,0-.2l-.034-.033h-.3v.423h.1v-.163h.034ZM22.545,43.4a1.422,1.422,0,0,1,.362-1.008A1.289,1.289,0,0,1,23.9,42a1.217,1.217,0,0,1,.954.406,1.44,1.44,0,0,1,.362.994,1.422,1.422,0,0,1-.362,1.008,1.248,1.248,0,0,1-.954.392,1.28,1.28,0,0,1-.988-.392A1.426,1.426,0,0,1,22.545,43.4Zm15.569-1.433A1.076,1.076,0,0,1,39.266,43h-2.3A1.076,1.076,0,0,1,38.114,41.962ZM49.832,43.4a1.422,1.422,0,0,1,.362-1.008,1.361,1.361,0,0,1,1.925.015,1.407,1.407,0,0,1,.379.994,1.422,1.422,0,0,1-.362,1.008,1.289,1.289,0,0,1-.988.392,1.239,1.239,0,0,1-.954-.392A1.427,1.427,0,0,1,49.832,43.4Zm8.952,0a1.407,1.407,0,0,1,.379-.994A1.26,1.26,0,0,1,60.134,42a1.279,1.279,0,0,1,.971.406,1.511,1.511,0,0,1,0,2,1.3,1.3,0,0,1-.971.392,1.26,1.26,0,0,1-.971-.406A1.407,1.407,0,0,1,58.784,43.4Zm5.2,2.344a.3.3,0,0,1-.133-.033q-.034,0-.1-.065t-.065-.1a.281.281,0,0,1-.034-.131.188.188,0,0,1,.034-.131.192.192,0,0,1,.065-.131l.034-.033q.065,0,.065-.033a.289.289,0,0,1,.133-.033.193.193,0,0,1,.133.033l.133.065.065.131v.033a.241.241,0,0,1,.034.1l-.034.033v.1l-.034.033-.034.065a.191.191,0,0,1-.133.065.193.193,0,0,1-.133.033Zm-44.269-.131H20.7V42.841a1.685,1.685,0,0,0-.478-1.254,1.87,1.87,0,0,0-1.3-.5,1.7,1.7,0,0,0-1.546.781,1.59,1.59,0,0,0-1.481-.781,1.536,1.536,0,0,0-1.283.652v-.521h-.988V45.61h.988V43.168Q14.614,42,15.7,42q.988,0,.988,1.173V45.61h.954V43.168Q17.643,42,18.73,42q.988,0,.988,1.173V45.61Zm5.464,0h.954V41.214H25.18v.521a1.786,1.786,0,0,0-1.416-.652,2.1,2.1,0,0,0-1.58.652,2.517,2.517,0,0,0,0,3.321,2.1,2.1,0,0,0,1.58.652,1.668,1.668,0,0,0,1.416-.652v.554Zm5.858-1.336q0-1.106-1.546-1.3l-.461-.065q-.756-.131-.756-.456,0-.488.824-.488a2.918,2.918,0,0,1,1.416.358l.4-.781a3.335,3.335,0,0,0-1.809-.456,2.119,2.119,0,0,0-1.35.392,1.256,1.256,0,0,0-.493,1.042q0,1.075,1.546,1.269l.428.065q.79.131.79.456,0,.554-1.02.554A2.535,2.535,0,0,1,27.52,44.4l-.428.748A3.337,3.337,0,0,0,29,45.706a2.52,2.52,0,0,0,1.5-.392,1.223,1.223,0,0,0,.543-1.042Zm4.278,1.106-.263-.815a1.809,1.809,0,0,1-.855.227q-.626,0-.626-.717V42.089h1.58V41.21h-1.58V39.874h-.988V41.21h-.923v.879h.923v1.986q0,1.627,1.546,1.627a2.112,2.112,0,0,0,1.186-.325Zm2.831-4.3a2.1,2.1,0,0,0-1.58.652,2.3,2.3,0,0,0-.626,1.661,2.254,2.254,0,0,0,.642,1.677,2.219,2.219,0,0,0,1.628.635,2.684,2.684,0,0,0,1.809-.619l-.461-.717a1.978,1.978,0,0,1-1.283.488,1.243,1.243,0,0,1-1.35-1.075h3.324v-.392a2.362,2.362,0,0,0-.592-1.677,1.978,1.978,0,0,0-1.515-.635Zm5.232,0a1.27,1.27,0,0,0-1.152.652v-.521H41.24v4.394h.988V43.131q0-1.14.954-1.14a1.308,1.308,0,0,1,.592.131l.3-.913a1.7,1.7,0,0,0-.691-.131Zm.988,2.311a2.268,2.268,0,0,0,.642,1.661,2.315,2.315,0,0,0,1.727.652,2.386,2.386,0,0,0,1.58-.521l-.461-.781a1.807,1.807,0,0,1-1.152.392,1.293,1.293,0,0,1-.971-.392,1.531,1.531,0,0,1,0-2.017,1.293,1.293,0,0,1,.971-.392,1.889,1.889,0,0,1,1.152.392l.461-.781a2.471,2.471,0,0,0-1.58-.521,2.31,2.31,0,0,0-1.727.652,2.279,2.279,0,0,0-.642,1.661Zm8.063,2.215h.988V41.212h-.988v.521a1.632,1.632,0,0,0-1.382-.652,2.151,2.151,0,0,0-1.6.652,2.467,2.467,0,0,0,0,3.321,2.151,2.151,0,0,0,1.6.652,1.578,1.578,0,0,0,1.382-.652v.554Zm4.377-4.525a1.27,1.27,0,0,0-1.152.652v-.521H54.7v4.394h.954V43.131q0-1.14.954-1.14a1.308,1.308,0,0,1,.592.131l.3-.913a1.555,1.555,0,0,0-.691-.131Zm4.609,4.525h.954V39.42h-.954v2.311A1.667,1.667,0,0,0,60,41.078a2.085,2.085,0,0,0-1.563.667,2.29,2.29,0,0,0-.642,1.644,2.266,2.266,0,0,0,.642,1.644A2.093,2.093,0,0,0,60,45.7a1.617,1.617,0,0,0,1.416-.652V45.6Zm2.568-.652-.065.033h-.1a.57.57,0,0,0-.133.1.129.129,0,0,0-.1.131.439.439,0,0,0-.034.2.349.349,0,0,0,.034.163q0,.065.1.131a.517.517,0,0,0,.133.1.368.368,0,0,0,.164.033.453.453,0,0,0,.2-.033q0-.033.065-.065l.065-.033a.946.946,0,0,0,.1-.131.349.349,0,0,0,.034-.163.439.439,0,0,0-.034-.2.945.945,0,0,1-.1-.131q0-.033-.065-.065l-.065-.033a.439.439,0,0,1-.1-.017.439.439,0,0,0-.1-.017ZM75.833,4.163v41.67a3.979,3.979,0,0,1-1.251,2.929A4.081,4.081,0,0,1,71.62,50H4.213a4.066,4.066,0,0,1-2.962-1.238A3.994,3.994,0,0,1,0,45.833V4.167A3.979,3.979,0,0,1,1.251,1.238,4.081,4.081,0,0,1,4.213,0H71.618A4.066,4.066,0,0,1,74.58,1.238a3.994,3.994,0,0,1,1.251,2.929Z" transform="translate(899.086 697)"/>
    <circle id="Ellipse_1" data-name="Ellipse 1" cx="20" cy="20" r="20" transform="translate(921.77 702)" fill="#f79e19"/>
    <circle id="Ellipse_2" data-name="Ellipse 2" cx="20" cy="20" r="20" transform="translate(912 702)" fill="#ff0400" opacity="0.77"/>
  </g>
</svg>
