<svg xmlns="http://www.w3.org/2000/svg" width="210" height="210" viewBox="0 0 210 210">
  <path id="qrcode" d="M203.437,183.75a6.654,6.654,0,1,1,4.614-1.948A6.306,6.306,0,0,1,203.437,183.75Zm0-52.5a6.654,6.654,0,0,1-6.562-6.562V111.562a6.563,6.563,0,0,1,13.125,0v13.125a6.654,6.654,0,0,1-6.562,6.562Zm0-52.5h-6.562v6.562a6.563,6.563,0,0,1-13.125,0V78.75H157.5v6.562a6.654,6.654,0,0,1-6.562,6.563h-6.562v6.562a6.563,6.563,0,0,1-13.125,0V52.5H111.564a6.526,6.526,0,0,1-4.614-11.177,6.306,6.306,0,0,1,4.614-1.948h19.687V13.125H118.127v6.563a6.307,6.307,0,0,1-1.948,4.614,6.438,6.438,0,0,1-9.228,0A6.307,6.307,0,0,1,105,19.688V6.563a6.307,6.307,0,0,1,1.948-4.614A6.306,6.306,0,0,1,111.564,0h91.872a6.306,6.306,0,0,1,4.614,1.948A6.307,6.307,0,0,1,210,6.563V72.188a6.654,6.654,0,0,1-6.562,6.563Zm-6.562-59.062a6.307,6.307,0,0,0-1.948-4.614,6.306,6.306,0,0,0-4.614-1.948H150.938a6.306,6.306,0,0,0-4.614,1.948,6.307,6.307,0,0,0-1.948,4.614V59.062a6.654,6.654,0,0,0,6.562,6.562h39.374a6.654,6.654,0,0,0,6.562-6.562ZM177.187,52.5H164.063a6.654,6.654,0,0,1-6.562-6.562V32.813a6.654,6.654,0,0,1,6.562-6.562h13.125a6.654,6.654,0,0,1,6.562,6.562V45.938a6.654,6.654,0,0,1-6.562,6.563ZM105,65.625h6.562a6.563,6.563,0,0,1,0,13.125H91.877v6.562a6.563,6.563,0,0,1-13.125,0V78.75H39.379V91.875H52.5V85.312a6.563,6.563,0,0,1,13.125,0V105H72.19a6.563,6.563,0,0,1,0,13.125H59.066a6.654,6.654,0,0,1-6.562-6.562V105H32.816a6.689,6.689,0,0,1-4.614-1.744,5.448,5.448,0,0,1-1.948-4.206V78.75H13.129v7.175a5.448,5.448,0,0,1-1.948,4.206,6.689,6.689,0,0,1-4.614,1.744,6.689,6.689,0,0,1-4.614-1.744A5.448,5.448,0,0,1,0,85.925v-12.3a1.848,1.848,0,0,1,.2-.822.419.419,0,0,0-.1-.309.419.419,0,0,1-.1-.309V6.563A6.307,6.307,0,0,1,1.947,1.948,6.306,6.306,0,0,1,6.561,0H72.185A6.306,6.306,0,0,1,76.8,1.948a6.307,6.307,0,0,1,1.948,4.614v6.563h6.562a6.306,6.306,0,0,1,4.614,1.948,6.438,6.438,0,0,1,0,9.228,6.306,6.306,0,0,1-4.614,1.948H78.747V39.375h6.562a6.526,6.526,0,0,1,4.614,11.177A6.306,6.306,0,0,1,85.309,52.5H78.747V65.625H91.871V59.062a6.563,6.563,0,0,1,13.125,0v6.562ZM65.628,19.688a6.307,6.307,0,0,0-1.948-4.614,6.306,6.306,0,0,0-4.614-1.948H19.692a6.306,6.306,0,0,0-4.614,1.948,6.307,6.307,0,0,0-1.948,4.614V59.062a6.307,6.307,0,0,0,1.948,4.614,6.306,6.306,0,0,0,4.614,1.948H59.066a6.654,6.654,0,0,0,6.562-6.562ZM45.941,52.5H32.816a6.654,6.654,0,0,1-6.562-6.562V32.813a6.654,6.654,0,0,1,6.562-6.562H45.941A6.654,6.654,0,0,1,52.5,32.813V45.938A6.654,6.654,0,0,1,45.941,52.5ZM6.567,105a6.306,6.306,0,0,1,4.614,1.948,6.438,6.438,0,0,1,0,9.228,6.306,6.306,0,0,1-4.614,1.948,6.306,6.306,0,0,1-4.614-1.948,6.438,6.438,0,0,1,0-9.228A6.306,6.306,0,0,1,6.567,105ZM98.44,118.125a6.654,6.654,0,1,1,4.614-1.948A6.306,6.306,0,0,1,98.44,118.125Zm13.125-26.25a6.654,6.654,0,1,1-4.614,1.948A6.306,6.306,0,0,1,111.564,91.875ZM157.5,98.437a6.654,6.654,0,1,1,1.948,4.614A6.307,6.307,0,0,1,157.5,98.437ZM6.567,131.25H26.254v-6.562a6.525,6.525,0,0,1,11.176-4.614,6.307,6.307,0,0,1,1.948,4.614v6.562H72.19a6.654,6.654,0,0,1,6.562,6.563V124.687a6.563,6.563,0,0,1,13.125,0v13.125h26.249V124.687a6.654,6.654,0,0,1,6.562-6.562h45.936v-6.562a6.563,6.563,0,0,1,13.125,0v32.813h6.562a6.563,6.563,0,0,1,0,13.125H183.75v19.687a6.654,6.654,0,0,1-6.562,6.563H157.5v19.687a6.563,6.563,0,0,1-13.125,0V183.75H131.251v6.563a6.563,6.563,0,0,1-13.125,0V183.75h-6.562a6.563,6.563,0,0,1,0-13.125h6.562V150.937H78.753V183.75h6.562a6.563,6.563,0,0,1,0,13.125H78.753v6.563A6.654,6.654,0,0,1,72.19,210H6.567a6.306,6.306,0,0,1-4.614-1.948A6.307,6.307,0,0,1,0,203.437V137.812A6.307,6.307,0,0,1,1.953,133.2,6.306,6.306,0,0,1,6.567,131.25Zm131.246,39.375h26.249a6.654,6.654,0,0,0,6.562-6.562v-26.25a6.654,6.654,0,0,0-6.562-6.562H137.813a6.654,6.654,0,0,0-6.562,6.563v26.25a6.654,6.654,0,0,0,6.562,6.563ZM13.129,190.313a6.307,6.307,0,0,0,1.948,4.614,6.306,6.306,0,0,0,4.614,1.948H59.066a6.654,6.654,0,0,0,6.562-6.562V150.937a6.654,6.654,0,0,0-6.562-6.562H19.692a6.306,6.306,0,0,0-4.614,1.948,6.307,6.307,0,0,0-1.948,4.614ZM32.816,157.5H45.941a6.654,6.654,0,0,1,6.562,6.562v13.125a6.654,6.654,0,0,1-6.562,6.563H32.816a6.654,6.654,0,0,1-6.562-6.563V164.062a6.654,6.654,0,0,1,6.562-6.562Zm118.122-13.125a6.654,6.654,0,1,1-4.614,1.948A6.306,6.306,0,0,1,150.938,144.375ZM98.44,157.5a6.654,6.654,0,1,1-4.614,1.948A6.306,6.306,0,0,1,98.44,157.5Zm13.125,39.375a6.654,6.654,0,1,1-4.614,1.948A6.306,6.306,0,0,1,111.564,196.875Zm65.623,0h6.562v-6.562a6.563,6.563,0,0,1,13.125,0v6.562h6.562a6.563,6.563,0,0,1,0,13.125H177.187a6.563,6.563,0,0,1,0-13.125Z" transform="translate(0.001)"/>
</svg>
